<svg id="Grupo_12" data-name="Grupo 12" xmlns="http://www.w3.org/2000/svg" xmlns:xlink="http://www.w3.org/1999/xlink" width="167.634" height="200" viewBox="0 0 167.634 200">
  <defs>
    <clipPath id="clip-path">
      <rect id="Rectángulo_28" data-name="Rectángulo 28" width="167.634" height="200" fill="none"/>
    </clipPath>
  </defs>
  <rect id="Rectángulo_22" data-name="Rectángulo 22" width="104.635" height="200" transform="translate(0.001)" fill="#dc101f"/>
  <path id="Trazado_59" data-name="Trazado 59" d="M36.985,108.778,60.8,96.4l15.468,11.9L56.7,45.635Z" transform="translate(-4.393 -5.421)" fill="#fff"/>
  <g id="Grupo_11" data-name="Grupo 11">
    <g id="Grupo_10" data-name="Grupo 10" clip-path="url(#clip-path)">
      <path id="Trazado_60" data-name="Trazado 60" d="M97.3,140.6l0-.005L59.885,20.736,56.786,9.9a5,5,0,0,0-.344-.854,4.08,4.08,0,0,0-1.242-1.5,2.893,2.893,0,0,0-1.67-.533,2.957,2.957,0,0,0-1.687.525,3.753,3.753,0,0,0-.981,1.011,5,5,0,0,0-.63,1.326h0l-3.253,10.85L9.576,140.565a2.8,2.8,0,0,0-.125.835,2.9,2.9,0,0,0,.263,1.216,2.321,2.321,0,0,0,.917,1.044,2.06,2.06,0,0,0,1.048.286h0l7.235.015a4.329,4.329,0,0,0,1.128-.137,2.729,2.729,0,0,0,1.236-.69,2.328,2.328,0,0,0,.58-.969l0,.006,11.86-37.979L53.433,41.048,73,103.72l12,38.451a2.4,2.4,0,0,0,.545.939,2.509,2.509,0,0,0,.813.566,3.973,3.973,0,0,0,1.591.285l7.24.006a2.11,2.11,0,0,0,1.039-.265,2.2,2.2,0,0,0,.724-.658,2.764,2.764,0,0,0,.474-1.584,2.942,2.942,0,0,0-.127-.862" transform="translate(-1.123 -0.833)" fill="#040506"/>
      <path id="Trazado_61" data-name="Trazado 61" d="M35.276,158.557l-7.083,16.925h2.328l1.591-3.867h6.133l1.5,3.867h2.364Zm-2.261,10.8,2.228-5.415,2.124,5.415Z" transform="translate(-3.349 -18.834)" fill="#fff"/>
      <path id="Trazado_62" data-name="Trazado 62" d="M48.163,173.356V159.7H46v15.919h6.371v-2.26Z" transform="translate(-5.464 -18.969)" fill="#fff"/>
      <path id="Trazado_63" data-name="Trazado 63" d="M53.949,159.7v2.252h3.288v13.667H59.4V161.95h3.287V159.7Z" transform="translate(-6.408 -18.969)" fill="#fff"/>
      <path id="Trazado_64" data-name="Trazado 64" d="M69.985,158.557,62.9,175.482h2.334l1.586-3.867h6.128l1.509,3.867h2.363Zm-2.267,10.8,2.226-5.415,2.125,5.415Z" transform="translate(-7.471 -18.834)" fill="#fff"/>
      <path id="Trazado_65" data-name="Trazado 65" d="M88.447,162.011,86.7,163.168a3.281,3.281,0,0,0-.938-1.235,2,2,0,0,0-1.194-.331,2.085,2.085,0,0,0-1.5.565,1.859,1.859,0,0,0-.59,1.406q0,1.168,1.554,1.876l1.43.653a6.123,6.123,0,0,1,2.548,1.913,4.65,4.65,0,0,1,.808,2.772,5.155,5.155,0,0,1-1.321,3.628,4.257,4.257,0,0,1-3.288,1.447,4.129,4.129,0,0,1-3.077-1.233,5.933,5.933,0,0,1-1.5-3.456l2.192-.538a4.446,4.446,0,0,0,.523,1.939A2.179,2.179,0,0,0,84.3,173.6a2.15,2.15,0,0,0,1.673-.749,2.792,2.792,0,0,0,.666-1.91,3.017,3.017,0,0,0-.115-.849,2.289,2.289,0,0,0-.363-.708,2.841,2.841,0,0,0-.637-.61,6.068,6.068,0,0,0-.922-.539l-1.38-.639q-2.946-1.384-2.941-4.039a4.033,4.033,0,0,1,1.229-3,4.2,4.2,0,0,1,3.071-1.213,4.257,4.257,0,0,1,3.866,2.667" transform="translate(-9.459 -18.927)" fill="#fff"/>
      <rect id="Rectángulo_23" data-name="Rectángulo 23" width="104.637" height="11.207" transform="translate(0 183.569)" fill="#040506"/>
      <rect id="Rectángulo_24" data-name="Rectángulo 24" width="1.1" height="8.041" transform="translate(8.374 184.946)" fill="#fff"/>
      <path id="Trazado_66" data-name="Trazado 66" d="M19.313,209.877v6.5l-4.007-6.5H14.022v8.041H15.06V211.43l4.068,6.488h1.215v-8.041Z" transform="translate(-1.666 -24.93)" fill="#fff"/>
      <path id="Trazado_67" data-name="Trazado 67" d="M30.591,209.876l-2.289,6.8-2.308-6.8H24.438v8.041h1.038v-4.742c0-.194-.01-.489-.018-.891s-.014-.7-.014-.9v-.247l2.313,6.779h1.075l2.295-6.779c0,.434,0,.84-.012,1.219s-.013.649-.013.819v4.742h1.046v-8.041Z" transform="translate(-2.903 -24.93)" fill="#fff"/>
      <path id="Trazado_68" data-name="Trazado 68" d="M42.882,211a4.446,4.446,0,0,1,.8,2.731,4.8,4.8,0,0,1-.912,2.994,4.058,4.058,0,0,1-5.969.171,4.59,4.59,0,0,1-.948-2.983,4.748,4.748,0,0,1,.81-2.793,3.5,3.5,0,0,1,3.069-1.488A3.682,3.682,0,0,1,42.882,211m-.959,5.122a4.395,4.395,0,0,0,.641-2.371,3.38,3.38,0,0,0-.746-2.286,2.5,2.5,0,0,0-2.022-.864,2.643,2.643,0,0,0-2.035.857,3.62,3.62,0,0,0-.783,2.524,3.688,3.688,0,0,0,.671,2.254,2.543,2.543,0,0,0,2.189.915,2.276,2.276,0,0,0,2.086-1.029" transform="translate(-4.258 -24.901)" fill="#fff"/>
      <path id="Trazado_69" data-name="Trazado 69" d="M53.131,214.118a2.71,2.71,0,0,0-.924-.53,2.244,2.244,0,0,0,.649-.468,1.839,1.839,0,0,0,.428-1.249,1.947,1.947,0,0,0-.347-1.146,2.324,2.324,0,0,0-2.022-.849H47.441v8.041h3.418a2.768,2.768,0,0,0,2.324-.941,2.214,2.214,0,0,0,.49-1.407,1.937,1.937,0,0,0-.542-1.45m-4.626-3.331h1.962a2.95,2.95,0,0,1,1.084.153A1.043,1.043,0,0,1,52.2,212a1.107,1.107,0,0,1-.6,1.083,2.5,2.5,0,0,1-1.087.189h-2Zm3.81,5.618a1.668,1.668,0,0,1-1.443.582H48.506v-2.83h2.179a3.058,3.058,0,0,1,1.113.168,1.185,1.185,0,0,1,.79,1.194,1.422,1.422,0,0,1-.271.886" transform="translate(-5.635 -24.93)" fill="#fff"/>
      <rect id="Rectángulo_25" data-name="Rectángulo 25" width="1.1" height="8.041" transform="translate(50.666 184.946)" fill="#fff"/>
      <path id="Trazado_70" data-name="Trazado 70" d="M63.1,216.959v-7.082h-1.09v8.041h5.121v-.959Z" transform="translate(-7.366 -24.93)" fill="#fff"/>
      <rect id="Rectángulo_26" data-name="Rectángulo 26" width="1.1" height="8.041" transform="translate(62.239 184.946)" fill="#fff"/>
      <path id="Trazado_71" data-name="Trazado 71" d="M78.628,209.876h-1.22l-3.028,8.042H75.5l.872-2.407h3.148l.838,2.407h1.2Zm-1.945,4.749,1.289-3.55,1.233,3.55Z" transform="translate(-8.835 -24.93)" fill="#fff"/>
      <path id="Trazado_72" data-name="Trazado 72" d="M91.247,217.245a3.138,3.138,0,0,1-.075-.686l-.036-1.076a1.818,1.818,0,0,0-.269-1.014,1.679,1.679,0,0,0-.7-.5,2.143,2.143,0,0,0,.831-.74,2.107,2.107,0,0,0,.3-1.184,1.9,1.9,0,0,0-1.112-1.895,3.581,3.581,0,0,0-1.489-.272h-3.65v8.041h1.09v-3.449h2.4a2.26,2.26,0,0,1,.952.152,1.12,1.12,0,0,1,.566,1.053l.068,1.34a4.557,4.557,0,0,0,.055.638l.087.266H91.6v-.182a.661.661,0,0,1-.352-.491m-1.493-3.991a1.983,1.983,0,0,1-1.177.307H86.132v-2.744h2.583a1.95,1.95,0,0,1,.867.162,1.2,1.2,0,0,1,.606,1.17,1.262,1.262,0,0,1-.434,1.105" transform="translate(-10.102 -24.93)" fill="#fff"/>
      <rect id="Rectángulo_27" data-name="Rectángulo 27" width="1.1" height="8.041" transform="translate(84.261 184.946)" fill="#fff"/>
      <path id="Trazado_73" data-name="Trazado 73" d="M104.4,209.876h-1.229l-3.023,8.042h1.114l.876-2.407h3.15l.84,2.407h1.188Zm-1.942,4.749,1.281-3.55,1.236,3.55Z" transform="translate(-11.896 -24.93)" fill="#fff"/>
      <path id="Trazado_74" data-name="Trazado 74" d="M20.414,185.8v2.842a5.664,5.664,0,0,0-3.876-1.74,4.719,4.719,0,0,0-3.723,1.762,6.318,6.318,0,0,0-1.515,4.289,6.155,6.155,0,0,0,1.515,4.227,4.8,4.8,0,0,0,3.731,1.725,4.2,4.2,0,0,0,1.938-.413,5.571,5.571,0,0,0,.924-.56,10.927,10.927,0,0,0,1.006-.845v2.9a7.173,7.173,0,0,1-3.893,1.17,6.859,6.859,0,0,1-5.244-2.381,8.385,8.385,0,0,1-2.155-5.8,8.7,8.7,0,0,1,1.808-5.42,6.906,6.906,0,0,1,5.755-2.919,6.8,6.8,0,0,1,3.729,1.157" transform="translate(-1.083 -21.933)" fill="#fff"/>
      <path id="Trazado_75" data-name="Trazado 75" d="M33.657,184.995v9.581a5.753,5.753,0,0,1-.6,3,2.9,2.9,0,0,1-2.547,1.372,2.859,2.859,0,0,1-2.529-1.372,5.754,5.754,0,0,1-.605-3v-9.581H25.221v10.25a6.083,6.083,0,0,0,1.411,4.143,4.924,4.924,0,0,0,3.881,1.816,4.989,4.989,0,0,0,3.9-1.816,6.121,6.121,0,0,0,1.4-4.143v-10.25Z" transform="translate(-2.996 -21.974)" fill="#fff"/>
      <path id="Trazado_76" data-name="Trazado 76" d="M52.953,183.635l-5.091,12.377-4.915-12.377-3.014,17.118h2.234l1.537-9.62,4.121,10.353,4.236-10.341,1.376,9.609H55.66Z" transform="translate(-4.744 -21.813)" fill="#fff"/>
      <path id="Trazado_77" data-name="Trazado 77" d="M69.329,193.864a3.543,3.543,0,0,0-1.8-1.517,3.945,3.945,0,0,0,1.176-2.9,4.989,4.989,0,0,0-.36-1.85,4.391,4.391,0,0,0-.952-1.523,3.405,3.405,0,0,0-1.458-.835,8.494,8.494,0,0,0-2.3-.247h-2.15v15.919h3.274a8.381,8.381,0,0,0,2.444-.3,3.865,3.865,0,0,0,1.6-1.1,4.494,4.494,0,0,0,1.186-3.154,4.655,4.655,0,0,0-.665-2.5M63.653,187.2h.757a2.221,2.221,0,0,1,1.665.58,2.325,2.325,0,0,1,.582,1.705,2.455,2.455,0,0,1-.56,1.75,2.36,2.36,0,0,1-1.768.595h-.676Zm3.487,10.815a3.082,3.082,0,0,1-2.148.642H63.653v-4.818h1.093a3.319,3.319,0,0,1,2.417.692,2.358,2.358,0,0,1,.7,1.733,2.316,2.316,0,0,1-.721,1.751" transform="translate(-7.304 -21.974)" fill="#fff"/>
      <path id="Trazado_78" data-name="Trazado 78" d="M78.66,194.134l4.434,6.782H80.453l-4.09-6.517h-.392v6.517H73.81V185h2.533a5.909,5.909,0,0,1,4.1,1.183,4.607,4.607,0,0,1,1.386,3.488,4.854,4.854,0,0,1-.869,2.908,3.844,3.844,0,0,1-2.3,1.559m-2.689-1.822h.686c2.048,0,3.074-.876,3.074-2.612,0-1.633-1-2.448-2.991-2.448h-.768Z" transform="translate(-8.767 -21.975)" fill="#fff"/>
      <path id="Trazado_79" data-name="Trazado 79" d="M94.923,187.252V185h-7.9v15.919h7.9V198.66H89.182v-5.321h5.575v-2.258H89.182v-3.83Z" transform="translate(-10.337 -21.975)" fill="#fff"/>
      <path id="Trazado_80" data-name="Trazado 80" d="M107.522,187.314l-1.757,1.155a3.182,3.182,0,0,0-.934-1.239,2.024,2.024,0,0,0-1.194-.327,2.046,2.046,0,0,0-1.487.564,1.843,1.843,0,0,0-.6,1.406c0,.778.516,1.406,1.554,1.875l1.428.656a6.109,6.109,0,0,1,2.554,1.912,4.668,4.668,0,0,1,.8,2.766,5.14,5.14,0,0,1-1.32,3.635,4.269,4.269,0,0,1-3.293,1.444,4.132,4.132,0,0,1-3.075-1.234,5.885,5.885,0,0,1-1.489-3.459l2.188-.538a4.327,4.327,0,0,0,.52,1.939,2.3,2.3,0,0,0,3.624.28,2.774,2.774,0,0,0,.666-1.908,3.025,3.025,0,0,0-.115-.849,2.167,2.167,0,0,0-.363-.708,2.825,2.825,0,0,0-.633-.608,5.932,5.932,0,0,0-.927-.542l-1.382-.642q-2.938-1.377-2.941-4.034a4.015,4.015,0,0,1,1.235-3,4.181,4.181,0,0,1,3.068-1.214,4.253,4.253,0,0,1,3.866,2.668" transform="translate(-11.726 -21.933)" fill="#fff"/>
      <path id="Trazado_81" data-name="Trazado 81" d="M111.853,189.328v-3.3h1.2a1.268,1.268,0,0,1,.555.093.7.7,0,0,1,.294.308,1.042,1.042,0,0,1,.115.5.838.838,0,0,1-.761.9.925.925,0,0,1,.229.184,2.282,2.282,0,0,1,.282.421l.473.9h-.45l-.361-.687a4.306,4.306,0,0,0-.317-.543.613.613,0,0,0-.207-.189.654.654,0,0,0-.28-.048h-.414v1.467Zm.359-1.846h.771a.935.935,0,0,0,.382-.061.463.463,0,0,0,.208-.191.591.591,0,0,0,.077-.3.524.524,0,0,0-.147-.393.6.6,0,0,0-.434-.143h-.857Z" transform="translate(-13.286 -22.096)" fill="#fff"/>
      <circle id="Elipse_2" data-name="Elipse 2" cx="2.691" cy="2.691" r="2.691" transform="translate(96.837 162.969)" fill="none" stroke="#fff" stroke-miterlimit="10" stroke-width="0.242"/>
      <path id="Trazado_82" data-name="Trazado 82" d="M130.751,10.569l20,.011H152.8c-.114.125-.163.189-.221.241q-1.494,1.364-2.988,2.726-2.5,2.266-4.992,4.531c-1.582,1.444-3.154,2.9-4.735,4.345q-1.983,1.814-3.977,3.613c-.207.186-.219.315-.046.533.649.82,1.282,1.652,1.915,2.486a.352.352,0,0,0,.519.122,14.369,14.369,0,0,1,5.093-1.556,14.238,14.238,0,0,1,11.241,3.807,16.175,16.175,0,0,1,1.421,1.556,13.325,13.325,0,0,1,2.915-1.969,19.463,19.463,0,0,0-3.284-3.178,17.862,17.862,0,0,0-6.545-3.2,19.255,19.255,0,0,0-5.594-.448c-.16.007-.318.022-.477.033a4.777,4.777,0,0,1,.712-.747l7.845-7.146q3.215-2.928,6.43-5.855a1.358,1.358,0,0,0,.486-1.043c0-.59-.015-1.182.016-1.77.018-.338-.087-.428-.42-.427q-9.893.013-19.785.008-3.852,0-7.7,0c-.22,0-.413-.009-.41.3.009.842-.007,1.684.011,2.526.011.488.042.5.526.5" transform="translate(-15.467 -0.859)" fill="#dc101f"/>
      <path id="Trazado_83" data-name="Trazado 83" d="M182.642,34.094a21.51,21.51,0,0,0-.179-2.918,15.685,15.685,0,0,0-1.695-5.217,18,18,0,0,0-6.145-6.905,17.464,17.464,0,0,0-7.954-2.624,16.538,16.538,0,0,0-7.214.837,18.375,18.375,0,0,0-8.394,6.271c.13.077.215.136.308.181.82.394,1.652.768,2.459,1.187.266.139.4.133.6-.1a14.383,14.383,0,0,1,3.6-3.032,13.253,13.253,0,0,1,6.691-2.086,14.17,14.17,0,0,1,14.054,10.351,15.338,15.338,0,0,1,.524,4.827q-.012,9.132-.046,18.264a15.289,15.289,0,0,1-.5,3.928,12.536,12.536,0,0,1-2.067,4.371,14.96,14.96,0,0,1-4.9,4.126,13.379,13.379,0,0,1-4.8,1.569,13.7,13.7,0,0,1-6.836-.842,14.17,14.17,0,0,1-7.418-6.687c-.116-.215-.072-.339.146-.455.382-.2.763-.412,1.124-.649a19.374,19.374,0,0,0,2.54-1.982,13.835,13.835,0,0,1-2.5-2.391c-.281.257-.574.508-.881.747a13.923,13.923,0,0,1-7.5,2.964,13.982,13.982,0,0,1-10.65-3.425,14.553,14.553,0,0,1-5.256-10.75c-.015-.3-.1-.417-.422-.406-.832.025-1.664.01-2.5.013-.128,0-.256.012-.374.019a1.115,1.115,0,0,0-.034.143c0,.085,0,.169,0,.253a15.859,15.859,0,0,0,1.318,6.458,18.03,18.03,0,0,0,21.343,10.51c.226-.061.313.026.423.2.573.93,1.106,1.89,1.756,2.763a16.906,16.906,0,0,0,6.2,5.185,18.107,18.107,0,0,0,6.287,1.709,16.574,16.574,0,0,0,7.04-.807,18.2,18.2,0,0,0,7.357-4.873,15.862,15.862,0,0,0,3.6-6.1,19.217,19.217,0,0,0,.9-5.968c-.012-6.221.006-12.442-.009-18.662" transform="translate(-15.017 -1.942)" fill="#dc101f"/>
      <path id="Trazado_84" data-name="Trazado 84" d="M157.294,54.851h-2.031l-.347-2.324h-2.471l-.348,2.324h-1.848l2.05-12.81h2.946ZM152.7,50.789h1.94l-.969-6.479Z" transform="translate(-17.847 -4.994)" fill="#dc101f"/>
      <path id="Trazado_85" data-name="Trazado 85" d="M161.1,45.223V54.5h-1.813V41.691h2.526l2.068,7.667V41.691h1.793V54.5H163.6Zm2.891-6.131.97.677a1.6,1.6,0,0,1-1.556,1.244c-.768,0-1.1-.457-1.647-.457a.755.755,0,0,0-.787.531L160,40.409a1.6,1.6,0,0,1,1.554-1.244c.768,0,1.1.457,1.647.457a.756.756,0,0,0,.788-.53" transform="translate(-18.92 -4.643)" fill="#dc101f"/>
      <path id="Trazado_86" data-name="Trazado 86" d="M167.986,45.095c0-2.049,1.079-3.22,3.057-3.22s3.055,1.171,3.055,3.22v6.662c0,2.05-1.079,3.221-3.055,3.221s-3.057-1.171-3.057-3.221ZM170,51.885c0,.916.4,1.263,1.044,1.263s1.042-.347,1.042-1.263V44.967c0-.915-.4-1.263-1.042-1.263S170,44.052,170,44.967Z" transform="translate(-19.954 -4.974)" fill="#dc101f"/>
      <path id="Trazado_87" data-name="Trazado 87" d="M179.065,41.875c1.958,0,2.964,1.171,2.964,3.221v.4h-1.9v-.53c0-.916-.366-1.263-1.006-1.263s-1.006.347-1.006,1.263c0,2.635,3.935,3.129,3.935,6.789,0,2.05-1.025,3.221-3,3.221s-3-1.171-3-3.221V50.97h1.9v.915c0,.916.4,1.245,1.043,1.245s1.043-.33,1.043-1.245c0-2.635-3.935-3.128-3.935-6.789,0-2.05,1.006-3.221,2.964-3.221" transform="translate(-20.911 -4.974)" fill="#dc101f"/>
    </g>
  </g>
</svg>
