<?xml version="1.0" encoding="UTF-8"?>
<svg xmlns="http://www.w3.org/2000/svg" version="1.1" viewBox="0 0 254.9 60.1">
  <defs>
    <style>
      .cls-1 {
        fill: #e1251b;
      }

      .cls-2 {
        fill: #1d1d1b;
      }
    </style>
  </defs>
  <!-- Generator: Adobe Illustrator 28.6.0, SVG Export Plug-In . SVG Version: 1.2.0 Build 709)  -->
  <g>
    <g id="Capa_1">
      <g>
        <g>
          <polygon class="cls-1" points="63.6 15.1 54.9 29.8 63.5 44.7 69.6 44.7 60.9 29.6 69.8 15.1 63.6 15.1"/>
          <path class="cls-2" d="M23.6,14.7c-8.3,0-12.1,7.9-12.1,15.2s4.8,15.4,12.8,15.4,7.3-1.3,9.6-3.6l.7-.7-3.6-3.9-.7.7c-1.6,1.6-3.8,2.5-6,2.5s-3.5-.6-4.6-1.8c-1.5-1.5-2.3-3.9-2.5-7h17.8v-.9c.2-.5.2-1.1.2-1.7,0-8.9-4.3-14.2-11.4-14.2M17.4,26.4c.8-4.5,3-6.8,6.4-6.8s5.5,4.1,5.7,6.8h-12.1Z"/>
          <polygon class="cls-2" points="54.9 15.1 49.2 25 43.5 15.1 37.5 15.1 39.9 19.7 45.6 29.6 36.6 44.7 42.6 44.7 48.7 34.3 54.6 44.7 60.9 44.7 52.2 29.8 61 15.1 54.9 15.1"/>
          <path class="cls-2" d="M82.3,14.4c-3.6,0-7.2,1.5-10,4.1l-.7.7,3.7,3.6.7-.7c1.8-1.7,4-2.8,6.1-2.8,4,0,5.2,1.5,5.2,6.3v.5c-.7,0-1.3,0-2,0-2.9,0-5.9.2-8.7,1.5-3.8,1.8-5.9,4.9-5.9,8.8s.2,2,.6,3.1c1.3,3.7,4.3,5.8,8.5,5.8s5.3-.9,7.6-2.6v2h5.3v-19.5c0-1.7,0-3.5-.7-5.2-1.5-3.5-5.1-5.6-9.6-5.6M87.3,31v5.7c-2.4,2.4-5.1,3.9-7.3,3.9s-4-1.8-4-4.1c0-3.6,3.2-5.4,9.5-5.4h1.7Z"/>
          <path class="cls-2" d="M114.1,37.8c-1,1.5-2.8,2.4-4.6,2.4-6.3,0-7-7-7-10s.3-10.5,6.7-10.5,3.7.9,4.7,2.7l.5.9,4.4-2.7-.5-.8c-1.9-3.3-5.2-5.2-9.3-5.2-8.3,0-12,7.9-12,15.8s4.6,14.9,12.3,14.9,7.4-1.6,9.2-4.6l.5-.8-4.2-2.9-.5.8Z"/>
          <path class="cls-2" d="M134.8,14.5c-7.8,0-12.9,6-12.9,15.3s5.1,15.3,12.9,15.3,12.9-6,12.9-15.3-5-15.3-12.9-15.3M134.8,40.2c-6.5,0-7.2-7.2-7.2-10.3s.7-10.3,7.2-10.3,7.1,5.9,7.3,9.3h0v1c0,3.1-.7,10.3-7.2,10.3"/>
          <path class="cls-2" d="M173.3,17.2c-1.5-1.7-3.9-2.7-6.5-2.7s-5.9,1.1-9,3.5v-2.8h-5.2v29.6h5.4v-20.7c1.6-1.4,5.2-4.5,8.2-4.5s2.5.7,3,1.6c.6,1,.6,2.3.6,3.5v20h5.4v-21c0-2.3-.2-4.7-1.7-6.5"/>
          <path class="cls-2" d="M176.9,42.1h0c0-1.3,1.1-2.4,2.4-2.4s2.4,1.1,2.4,2.4h0c0,1.3-1.1,2.4-2.4,2.4s-2.4-1.1-2.4-2.4ZM181.5,42.1h0c0-1.2-.9-2.2-2.1-2.2s-2.1,1-2.1,2.2h0c0,1.2.9,2.2,2.1,2.2s2.1-1,2.1-2.2ZM178.3,40.8h1.2c.6,0,1,.3,1,.8s-.2.7-.6.8l.6.9h-.7l-.5-.8h-.4v.8h-.6v-2.5ZM179.5,42.1c.3,0,.4-.1.4-.3s-.2-.3-.4-.3h-.5v.7h.5Z"/>
        </g>
        <path class="cls-1" d="M188.3,39.5l10.1-8.3c1-.8,1.8-1.5,2.4-2.1.7-.6,1.2-1.2,1.6-1.8.4-.6.7-1.1.9-1.7.2-.5.3-1.1.3-1.8,0-1.3-.4-2.3-1.1-3-.8-.7-1.7-1-3-1s-2.2.3-3.2,1c-.9.7-1.9,1.7-3.1,3.1l-4.7-3.8c.8-1,1.5-1.9,2.3-2.7.8-.8,1.6-1.5,2.5-2,.9-.5,1.9-1,2.9-1.2,1.1-.3,2.3-.4,3.7-.4s3,.2,4.3.7c1.3.5,2.4,1.1,3.3,1.9.9.8,1.6,1.8,2.1,3,.5,1.2.8,2.5.8,3.9h0c0,1.4-.2,2.5-.5,3.5-.3,1-.8,1.9-1.5,2.8-.7.9-1.5,1.8-2.5,2.7-1,.9-2.2,1.9-3.5,2.9l-5,3.8h13.3v5.8h-22.6v-5.3Z"/>
        <g>
          <rect class="cls-1" x="217.6" y="41.7" width="9.1" height=".1" transform="translate(35.5 169.4) rotate(-45)"/>
          <path class="cls-1" d="M242.1,21.7l-.8.8c-2.6-5.5-8.2-9.3-14.6-9.3s-16.2,7.2-16.2,16.2,3.8,12.1,9.3,14.6l4.7-4.7c-4.6-1-8-5.1-8-9.9s4.5-10.2,10.2-10.2,9,3.4,9.9,8l-.6.6h0c0,0,6.1-6,6.1-6h0Z"/>
        </g>
        <g>
          <path class="cls-2" d="M222.7,30.2h.8l2.1,4.7h-.9l-.5-1.1h-2.2l-.5,1.1h-.8l2.1-4.7ZM223.8,33.1l-.8-1.9-.8,1.9h1.6Z"/>
          <path class="cls-2" d="M226.3,30.3h.8l2.5,3.3v-3.3h.8v4.7h-.7l-2.6-3.4v3.4h-.8v-4.7ZM227.1,29.8c0-.3.2-.5.3-.6.1-.1.3-.2.5-.2s.2,0,.3,0c0,0,.2,0,.3,0s.2,0,.2,0,.1,0,.2,0c0,0,.2,0,.2,0,0,0,0-.1.1-.3h.4c0,.4-.2.6-.3.8s-.3.2-.5.2-.2,0-.3,0-.2,0-.3,0c0,0-.2,0-.2,0s-.1,0-.2,0c0,0-.2,0-.2,0s0,.1-.1.3h-.4Z"/>
          <path class="cls-2" d="M233.9,35c-.4,0-.7,0-1-.2-.3-.1-.6-.3-.8-.5-.2-.2-.4-.5-.5-.8-.1-.3-.2-.6-.2-.9h0c0-.3,0-.7.2-1,.1-.3.3-.6.5-.8.2-.2.5-.4.8-.5s.6-.2,1-.2.7,0,1,.2.6.3.8.5.4.5.5.8c.1.3.2.6.2.9h0c0,.3,0,.7-.2,1-.1.3-.3.6-.5.8s-.5.4-.8.5c-.3.1-.6.2-1,.2ZM233.9,34.3c.2,0,.4,0,.6-.1.2,0,.4-.2.5-.4.1-.2.2-.3.3-.5,0-.2.1-.4.1-.6h0c0-.2,0-.5-.1-.7,0-.2-.2-.4-.3-.5-.1-.2-.3-.3-.5-.4-.2,0-.4-.1-.6-.1s-.4,0-.6.1c-.2,0-.4.2-.5.4-.1.2-.2.3-.3.5,0,.2-.1.4-.1.6h0c0,.2,0,.5.1.7,0,.2.2.4.3.5.1.2.3.3.5.4.2,0,.4.1.6.1Z"/>
          <path class="cls-2" d="M239,35c-.4,0-.7,0-1-.2s-.6-.3-.9-.6l.5-.6c.2.2.5.3.7.5.2.1.5.2.8.2s.5,0,.6-.2c.2-.1.2-.3.2-.4h0c0,0,0-.2,0-.2s0-.1-.2-.2c0,0-.2-.1-.3-.2-.1,0-.3,0-.5-.1-.3,0-.5-.1-.7-.2-.2,0-.4-.2-.5-.3s-.2-.2-.3-.4-.1-.3-.1-.6h0c0-.2,0-.4.1-.6s.2-.3.3-.4c.1-.1.3-.2.5-.3.2,0,.4-.1.6-.1.3,0,.7,0,.9.2.3.1.5.2.8.4l-.4.6c-.2-.2-.4-.3-.6-.4-.2,0-.4-.1-.6-.1s-.4,0-.6.2c-.1.1-.2.2-.2.4h0c0,.1,0,.2,0,.3,0,0,0,.1.2.2s.2.1.3.2c.1,0,.3.1.6.2.2,0,.5.1.7.2.2,0,.3.2.5.3s.2.2.3.4,0,.3,0,.5h0c0,.2,0,.4-.1.6,0,.2-.2.3-.3.4-.1.1-.3.2-.5.3-.2,0-.4,0-.7,0Z"/>
        </g>
      </g>
    </g>
  </g>
</svg>